<?xml version="1.0" standalone="no"?>
<!DOCTYPE svg PUBLIC "-//W3C//DTD SVG 20010904//EN"
 "http://www.w3.org/TR/2001/REC-SVG-20010904/DTD/svg10.dtd">
<svg version="1.0" xmlns="http://www.w3.org/2000/svg"
 width="300.000000pt" height="409.000000pt" viewBox="0 0 300.000000 409.000000"
 preserveAspectRatio="xMidYMid meet">
<metadata>
Created by potrace 1.10, written by Peter Selinger 2001-2011
</metadata>
<g transform="translate(0.000000,409.000000) scale(0.100000,-0.100000)"
fill="#000000" stroke="none">
<path d="M1255 3598 c-66 -82 -121 -154 -123 -159 -5 -14 21 -11 54 6 97 48
236 54 350 15 32 -11 61 -17 65 -13 6 7 -182 260 -216 291 -6 6 -54 -45 -130
-140z"/>
<path d="M1224 3216 c-87 -18 -174 -73 -174 -109 0 -3 14 -7 32 -9 20 -3 53 4
92 20 56 24 74 26 206 26 131 1 153 -2 231 -26 47 -15 94 -37 104 -48 25 -28
35 -25 35 11 0 45 -60 102 -130 124 -72 23 -310 29 -396 11z"/>
<path d="M1230 3054 c-35 -8 -67 -18 -71 -22 -7 -7 -34 -401 -28 -406 2 -2 51
5 109 15 136 23 195 23 305 0 50 -10 91 -18 93 -16 5 4 -21 400 -27 406 -3 3
-36 14 -73 23 -81 19 -218 19 -308 0z"/>
<path d="M1275 2480 c-33 -5 -85 -17 -115 -28 -53 -18 -55 -20 -58 -58 -11
-141 -29 -460 -26 -463 2 -2 46 6 98 19 83 20 112 22 253 18 128 -4 169 -9
216 -26 l58 -21 -6 127 c-13 255 -24 385 -32 392 -7 6 -61 14 -303 45 -14 2
-52 -1 -85 -5z"/>
<path d="M1330 1810 l0 -100 55 0 55 0 0 100 0 100 -55 0 -55 0 0 -100z"/>
<path d="M1191 1635 c-41 -7 -94 -21 -118 -30 -43 -17 -43 -17 -43 -68 -1 -29
-7 -167 -14 -307 -8 -140 -12 -257 -10 -259 2 -2 35 4 75 13 39 9 137 21 216
28 127 10 160 9 271 -7 70 -10 144 -24 165 -31 35 -13 37 -12 37 9 0 34 -31
602 -34 604 -1 1 -42 14 -91 28 -75 23 -114 28 -235 31 -98 2 -169 -1 -219
-11z"/>
<path d="M1188 807 c-35 -28 -95 -81 -135 -119 -82 -77 -115 -96 -176 -104
-52 -7 -73 2 -137 62 l-47 44 -20 -23 c-11 -12 -31 -42 -45 -67 -40 -71 -62
-85 -125 -85 -51 0 -56 -2 -70 -30 -22 -43 -67 -89 -153 -155 -41 -31 -84 -67
-94 -79 l-19 -21 699 -2 c1059 -4 1437 -1 1749 16 77 4 147 10 155 13 9 3 -36
29 -105 62 -110 53 -189 106 -258 175 -14 14 -35 26 -46 26 -11 0 -85 22 -165
49 -81 28 -188 59 -240 70 -51 11 -106 25 -121 31 -15 6 -67 48 -115 95 -49
47 -95 85 -103 85 -8 0 -27 -20 -41 -44 -23 -40 -109 -126 -125 -126 -4 0 -35
31 -68 69 -34 37 -78 78 -97 89 l-35 21 -63 -52z"/>
</g>
</svg>
