<?xml version="1.0" standalone="no"?>
<!DOCTYPE svg PUBLIC "-//W3C//DTD SVG 20010904//EN"
 "http://www.w3.org/TR/2001/REC-SVG-20010904/DTD/svg10.dtd">
<svg version="1.0" xmlns="http://www.w3.org/2000/svg"
 width="158.000000pt" height="300.000000pt" viewBox="0 0 158.000000 300.000000"
 preserveAspectRatio="xMidYMid meet">
<metadata>
Created by potrace 1.10, written by Peter Selinger 2001-2011
</metadata>
<g transform="translate(0.000000,300.000000) scale(0.100000,-0.100000)"
fill="#000000" stroke="none">
<path d="M100 2270 l0 -660 175 0 175 0 0 310 c0 171 2 310 5 310 3 0 75 -56
162 -125 98 -78 160 -122 167 -116 6 4 77 61 158 125 81 64 149 116 152 116 3
0 6 -139 6 -310 l0 -310 170 0 170 0 0 661 0 660 -27 -20 c-16 -12 -76 -58
-135 -103 -119 -92 -396 -305 -463 -356 l-42 -32 -61 47 c-33 27 -120 94 -194
150 -73 57 -194 150 -268 208 -74 57 -138 105 -142 105 -5 0 -8 -297 -8 -660z"/>
<path d="M100 1300 l0 -170 670 0 670 0 0 170 0 170 -670 0 -670 0 0 -170z"/>
<path d="M635 933 c-75 -60 -208 -164 -295 -233 -86 -69 -176 -138 -198 -155
l-42 -30 0 -207 c0 -115 3 -208 7 -208 9 0 57 36 523 396 69 53 130 98 137
101 12 5 201 -136 543 -404 65 -51 121 -93 124 -93 3 0 6 94 6 208 l0 208
-126 100 c-69 54 -172 135 -228 179 -150 119 -278 218 -297 233 -15 10 -35 -2
-154 -95z"/>
</g>
</svg>
