<?xml version="1.0" standalone="no"?>
<!DOCTYPE svg PUBLIC "-//W3C//DTD SVG 20010904//EN"
 "http://www.w3.org/TR/2001/REC-SVG-20010904/DTD/svg10.dtd">
<svg version="1.0" xmlns="http://www.w3.org/2000/svg"
 width="300.000000pt" height="465.000000pt" viewBox="0 0 300.000000 465.000000"
 preserveAspectRatio="xMidYMid meet">
<metadata>
Created by potrace 1.10, written by Peter Selinger 2001-2011
</metadata>
<g transform="translate(0.000000,465.000000) scale(0.100000,-0.100000)"
fill="#000000" stroke="none">
<path d="M2525 4490 c-84 -40 -120 -91 -140 -197 -8 -43 -24 -134 -35 -203
-11 -69 -25 -147 -31 -175 -23 -104 -51 -222 -64 -265 -37 -129 -60 -204 -87
-287 -16 -51 -27 -100 -24 -110 3 -10 10 -67 16 -128 6 -60 15 -146 20 -190 5
-44 14 -127 20 -185 13 -125 17 -140 36 -140 45 0 129 -72 226 -192 87 -109
162 -197 165 -195 1 2 -7 32 -18 68 -17 52 -21 92 -22 209 -1 86 4 167 12 200
28 121 51 230 71 340 12 63 25 135 30 160 57 293 120 848 120 1050 0 98 -2
108 -30 156 -52 92 -171 129 -265 84z"/>
<path d="M415 4086 c-39 -18 -74 -81 -82 -146 -6 -55 6 -201 47 -565 5 -44 14
-132 20 -195 6 -63 16 -142 22 -175 6 -33 14 -89 18 -125 5 -36 16 -119 25
-185 14 -95 17 -192 16 -474 -1 -515 23 -673 149 -986 54 -131 60 -171 60
-391 0 -110 3 -303 7 -427 l6 -227 722 0 723 0 6 31 c3 17 6 64 6 104 0 217
81 532 189 735 159 298 226 485 271 755 7 39 16 83 21 99 18 59 11 87 -33 136
-39 41 -125 145 -263 314 -54 67 -108 117 -139 130 -21 8 -80 15 -301 36 -60
5 -159 15 -220 20 -351 34 -335 35 -355 -26 -13 -38 2 -150 27 -201 32 -67 69
-80 279 -92 113 -6 136 -11 163 -30 48 -34 61 -69 61 -159 0 -94 -12 -114 -94
-161 -38 -21 -63 -44 -81 -76 -36 -60 -58 -149 -53 -207 l5 -46 -56 -4 c-31
-2 -59 -3 -63 -1 -11 6 -10 97 2 166 19 116 78 208 171 269 39 25 49 37 49 59
0 41 -24 59 -78 59 l-47 0 -24 -55 c-43 -100 -121 -161 -234 -185 -192 -39
-325 116 -405 475 -47 208 -54 262 -81 610 -6 72 -20 156 -35 210 -14 50 -44
164 -66 255 -22 91 -43 174 -46 185 -4 17 -25 151 -51 324 -8 56 -58 129 -103
153 -49 24 -118 31 -155 14z"/>
<path d="M1705 3258 c-44 -16 -115 -67 -115 -82 0 -8 8 -58 19 -112 20 -106
37 -221 47 -320 7 -73 -2 -69 189 -85 66 -5 146 -13 178 -18 32 -4 60 -4 63 0
2 4 0 38 -5 76 -5 37 -15 115 -21 173 -22 213 -33 295 -44 309 -6 8 -38 27
-71 43 -50 23 -72 28 -135 27 -41 0 -88 -5 -105 -11z"/>
<path d="M1222 3188 c-48 -23 -107 -87 -177 -192 l-46 -70 6 -100 c10 -170 38
-355 77 -506 56 -221 132 -340 218 -340 72 0 145 42 176 102 8 15 14 29 14 31
0 2 -21 7 -46 11 -143 19 -230 140 -242 331 -4 68 -1 87 18 128 12 26 41 62
63 80 41 32 42 32 150 32 l108 -1 -5 26 c-3 14 -10 63 -16 110 -5 47 -15 111
-20 143 -6 31 -14 82 -20 113 -15 89 -16 92 -75 108 -72 21 -131 19 -183 -6z"/>
</g>
</svg>
